<?xml version="1.0" encoding="utf-8"?>
<!-- Generator: Adobe Illustrator 19.1.0, SVG Export Plug-In . SVG Version: 6.00 Build 0)  -->
<svg version="1.1" id="Layer_1" xmlns="http://www.w3.org/2000/svg" xmlns:xlink="http://www.w3.org/1999/xlink" x="0px" y="0px"
	 viewBox="0 0 89.4 214.1" style="enable-background:new 0 0 89.4 214.1;" xml:space="preserve">
<style type="text/css">
	.st0{fill:#231F20;}
</style>
<g>
	<g>
		<path class="st0" d="M81.4,100c-2-10.3-4.5-17.2-6.5-22.9l-0.6-1.8c-5.6-15.9-9.2-42.2-6.3-46.1c3.9-5.1,4.7-12.1,2.1-17.9
			c-1.9-4.2-5.2-6.8-8.9-7.1C58.2,4,47.9,3.4,44.4,3.4c-5.7,0-13.8,0.5-16.7,0.7c-3.7,0.3-7,2.9-8.9,7.1c-2.6,5.8-1.8,12.8,2.1,17.9
			c2.9,3.9-0.7,30.2-6.3,46.1l-0.6,1.8c-2,5.7-4.5,12.5-6.5,22.9c0,0-4.2,18.5-4.2,55.2c0,54.2,4.6,57.6,30.3,57.6
			c1.7,0,6.6,0,10.9,0s9.2,0,10.9,0c25.7,0,30.3-3.4,30.3-57.6C85.6,118.5,81.4,100,81.4,100z M44.6,100.2
			c-15.1-8.9-25.5-4.4-26.3-4c0,0,3.3-11.3,4.9-15.7l0.7-1.8c2-5.5,13.1-44.7,4.8-55.4c-1.9-2.5-1.6-5.3-1.4-6.4
			c0.3-1.7,1.1-2.6,1.4-2.9c4.7-0.3,10.3-0.6,15.7-0.7c5.4,0.1,11,0.4,15.7,0.7c0.3,0.3,1.1,1.2,1.4,2.9c0.2,1.1,0.5,3.9-1.4,6.4
			C51.9,34,63,73.1,64.9,78.7l0.7,1.8c2.1,5.9,4.5,12.5,6.4,22.9C72,103.4,57.1,108.1,44.6,100.2z"/>
	</g>
</g>
</svg>
